<svg width="24" height="25" viewBox="0 0 24 25" fill="none" xmlns="http://www.w3.org/2000/svg">
<path fill-rule="evenodd" clip-rule="evenodd" d="M12.97 4.47001C13.1106 4.32956 13.3012 4.25067 13.5 4.25067C13.6988 4.25067 13.8894 4.32956 14.03 4.47001L21.53 11.97C21.6705 12.1106 21.7493 12.3013 21.7493 12.5C21.7493 12.6988 21.6705 12.8894 21.53 13.03L14.03 20.53C13.9613 20.6037 13.8785 20.6628 13.7865 20.7038C13.6945 20.7448 13.5952 20.7668 13.4945 20.7686C13.3938 20.7704 13.2938 20.7519 13.2004 20.7141C13.107 20.6764 13.0222 20.6203 12.951 20.549C12.8797 20.4778 12.8236 20.393 12.7859 20.2996C12.7482 20.2062 12.7296 20.1062 12.7314 20.0055C12.7332 19.9048 12.7552 19.8055 12.7962 19.7135C12.8372 19.6215 12.8963 19.5387 12.97 19.47L19.19 13.25H3C2.80109 13.25 2.61032 13.171 2.46967 13.0303C2.32902 12.8897 2.25 12.6989 2.25 12.5C2.25 12.3011 2.32902 12.1103 2.46967 11.9697C2.61032 11.829 2.80109 11.75 3 11.75H19.19L12.97 5.53001C12.8295 5.38939 12.7507 5.19876 12.7507 5.00001C12.7507 4.80126 12.8295 4.61064 12.97 4.47001Z" fill="#3A68F5"/>
</svg>
