<svg width="24" height="25" viewBox="0 0 24 25" fill="none" xmlns="http://www.w3.org/2000/svg">
<path fill-rule="evenodd" clip-rule="evenodd" d="M14.615 2.09498C14.7614 2.17648 14.8763 2.30466 14.9413 2.45908C15.0064 2.61351 15.0179 2.78527 14.974 2.94698L12.982 10.25H20.25C20.3961 10.25 20.5391 10.2927 20.6613 10.3729C20.7835 10.4531 20.8796 10.5672 20.9378 10.7013C20.9961 10.8353 21.0138 10.9835 20.989 11.1275C20.9641 11.2715 20.8977 11.4052 20.798 11.512L10.298 22.762C10.1836 22.8848 10.0313 22.9657 9.86558 22.9917C9.69981 23.0178 9.53009 22.9875 9.38357 22.9057C9.23704 22.8239 9.12218 22.6954 9.05735 22.5406C8.99252 22.3858 8.98146 22.2138 9.02595 22.052L11.018 14.75H3.74995C3.60379 14.75 3.46082 14.7073 3.33861 14.6271C3.2164 14.5469 3.12028 14.4328 3.06206 14.2987C3.00384 14.1646 2.98607 14.0165 3.01092 13.8724C3.03578 13.7284 3.10217 13.5948 3.20195 13.488L13.702 2.23798C13.8163 2.11563 13.9683 2.03507 14.1338 2.00916C14.2993 1.98324 14.4687 2.01345 14.615 2.09498Z" fill="#3A68F5"/>
</svg>
