<svg width="16" height="16" viewBox="0 0 16 16" fill="none" xmlns="http://www.w3.org/2000/svg">
<g id="Frame">
<path id="Vector" fill-rule="evenodd" clip-rule="evenodd" d="M8.19333 14.4007L8.24 14.4273L8.25867 14.438C8.33269 14.478 8.41552 14.499 8.49967 14.499C8.58382 14.499 8.66664 14.478 8.74067 14.438L8.75933 14.428L8.80667 14.4007C9.06741 14.2461 9.32184 14.081 9.56933 13.906C10.21 13.4537 10.8087 12.9445 11.358 12.3847C12.654 11.058 14 9.06467 14 6.5C14 5.04131 13.4205 3.64236 12.3891 2.61091C11.3576 1.57946 9.95869 1 8.5 1C7.04131 1 5.64236 1.57946 4.61091 2.61091C3.57946 3.64236 3 5.04131 3 6.5C3 9.064 4.34667 11.058 5.642 12.3847C6.1911 12.9445 6.78952 13.4536 7.43 13.906C7.67771 14.0811 7.93236 14.2461 8.19333 14.4007ZM8.5 8.5C9.03043 8.5 9.53914 8.28929 9.91421 7.91421C10.2893 7.53914 10.5 7.03043 10.5 6.5C10.5 5.96957 10.2893 5.46086 9.91421 5.08579C9.53914 4.71071 9.03043 4.5 8.5 4.5C7.96957 4.5 7.46086 4.71071 7.08579 5.08579C6.71071 5.46086 6.5 5.96957 6.5 6.5C6.5 7.03043 6.71071 7.53914 7.08579 7.91421C7.46086 8.28929 7.96957 8.5 8.5 8.5Z" fill="#888888"/>
</g>
</svg>
